<svg xmlns="http://www.w3.org/2000/svg" xmlns:xlink="http://www.w3.org/1999/xlink" width="1920" zoomAndPan="magnify" viewBox="0 0 1440 809.999993" height="1080" preserveAspectRatio="xMidYMid meet" version="1.0"><defs><g/><clipPath id="4e2f6929c2"><path d="M 967.679688 563.980469 L 981.929688 563.980469 L 981.929688 578.230469 L 967.679688 578.230469 Z M 967.679688 563.980469 " clip-rule="nonzero"/></clipPath><clipPath id="b16e03d138"><path d="M 974.824219 563.980469 C 970.878906 563.980469 967.679688 567.175781 967.679688 571.121094 C 967.679688 575.066406 970.878906 578.265625 974.824219 578.265625 C 978.765625 578.265625 981.964844 575.066406 981.964844 571.121094 C 981.964844 567.175781 978.765625 563.980469 974.824219 563.980469 Z M 974.824219 563.980469 " clip-rule="nonzero"/></clipPath><clipPath id="8f0e0f696f"><path d="M 142.492188 729 L 151.492188 729 L 151.492188 738 L 142.492188 738 Z M 142.492188 729 " clip-rule="nonzero"/></clipPath><clipPath id="d6ac1eeee7"><path d="M 147.019531 729 C 144.519531 729 142.492188 731.027344 142.492188 733.527344 C 142.492188 736.03125 144.519531 738.058594 147.019531 738.058594 C 149.523438 738.058594 151.550781 736.03125 151.550781 733.527344 C 151.550781 731.027344 149.523438 729 147.019531 729 Z M 147.019531 729 " clip-rule="nonzero"/></clipPath><clipPath id="1dd90e4716"><path d="M 1359 771.113281 L 1373.25 771.113281 L 1373.25 785.363281 L 1359 785.363281 Z M 1359 771.113281 " clip-rule="nonzero"/></clipPath><clipPath id="4505558afd"><path d="M 1366.140625 771.113281 C 1362.199219 771.113281 1359 774.3125 1359 778.257812 C 1359 782.203125 1362.199219 785.398438 1366.140625 785.398438 C 1370.085938 785.398438 1373.285156 782.203125 1373.285156 778.257812 C 1373.285156 774.3125 1370.085938 771.113281 1366.140625 771.113281 Z M 1366.140625 771.113281 " clip-rule="nonzero"/></clipPath><clipPath id="76ae954aa1"><path d="M 504.207031 626.496094 L 525.957031 626.496094 L 525.957031 648 L 504.207031 648 Z M 504.207031 626.496094 " clip-rule="nonzero"/></clipPath><clipPath id="de230f2003"><path d="M 726 750 L 741 750 L 741 765 L 726 765 Z M 726 750 " clip-rule="nonzero"/></clipPath><clipPath id="5551e6bc2e"><path d="M 732.703125 744.355469 L 746.609375 756.929688 L 734.035156 770.835938 L 720.128906 758.261719 Z M 732.703125 744.355469 " clip-rule="nonzero"/></clipPath><clipPath id="f53603d3d1"><path d="M 732.703125 744.355469 L 746.609375 756.929688 L 734.035156 770.835938 L 720.128906 758.261719 Z M 732.703125 744.355469 " clip-rule="nonzero"/></clipPath><clipPath id="c5fa60206c"><path d="M 984 40 L 999 40 L 999 55 L 984 55 Z M 984 40 " clip-rule="nonzero"/></clipPath><clipPath id="bfac47f78d"><path d="M 995.355469 38.523438 L 1000.320312 51.878906 L 986.964844 56.84375 L 982 43.484375 Z M 995.355469 38.523438 " clip-rule="nonzero"/></clipPath><clipPath id="4975f3ec31"><path d="M 995.355469 38.523438 L 1000.332031 51.914062 L 986.941406 56.890625 L 981.964844 43.5 Z M 995.355469 38.523438 " clip-rule="nonzero"/></clipPath><clipPath id="538d3b2b17"><path d="M 997.84375 45.21875 C 996.472656 41.519531 992.359375 39.636719 988.660156 41.011719 C 984.964844 42.382812 983.082031 46.496094 984.453125 50.195312 C 985.828125 53.890625 989.941406 55.773438 993.636719 54.402344 C 997.335938 53.027344 999.21875 48.914062 997.84375 45.21875 Z M 997.84375 45.21875 " clip-rule="nonzero"/></clipPath><clipPath id="b968582abc"><path d="M 1326.390625 351.699219 L 1335.390625 351.699219 L 1335.390625 360.699219 L 1326.390625 360.699219 Z M 1326.390625 351.699219 " clip-rule="nonzero"/></clipPath><clipPath id="03b66ca359"><path d="M 1330.859375 360.699219 C 1333.363281 360.699219 1335.390625 358.671875 1335.390625 356.171875 C 1335.390625 353.671875 1333.363281 351.640625 1330.859375 351.640625 C 1328.359375 351.640625 1326.332031 353.671875 1326.332031 356.171875 C 1326.332031 358.671875 1328.359375 360.699219 1330.859375 360.699219 Z M 1330.859375 360.699219 " clip-rule="nonzero"/></clipPath><clipPath id="b2ee11c6fe"><path d="M 104.636719 304.34375 L 118.886719 304.34375 L 118.886719 318.59375 L 104.636719 318.59375 Z M 104.636719 304.34375 " clip-rule="nonzero"/></clipPath><clipPath id="f3d2ed62cb"><path d="M 111.746094 318.59375 C 115.691406 318.59375 118.886719 315.394531 118.886719 311.449219 C 118.886719 307.503906 115.691406 304.308594 111.746094 304.308594 C 107.800781 304.308594 104.601562 307.503906 104.601562 311.449219 C 104.601562 315.394531 107.800781 318.59375 111.746094 318.59375 Z M 111.746094 318.59375 " clip-rule="nonzero"/></clipPath><clipPath id="8afbbc3d8a"><path d="M 579 0 L 600.523438 0 L 600.523438 21.433594 L 579 21.433594 Z M 579 0 " clip-rule="nonzero"/></clipPath><clipPath id="f5063aef94"><path d="M 1273 571 L 1288 571 L 1288 586 L 1273 586 Z M 1273 571 " clip-rule="nonzero"/></clipPath><clipPath id="b026d871fe"><path d="M 1281.171875 591.632812 L 1267.265625 579.058594 L 1279.839844 565.152344 L 1293.746094 577.726562 Z M 1281.171875 591.632812 " clip-rule="nonzero"/></clipPath><clipPath id="673e15f83a"><path d="M 1281.171875 591.632812 L 1267.265625 579.058594 L 1279.839844 565.152344 L 1293.746094 577.726562 Z M 1281.171875 591.632812 " clip-rule="nonzero"/></clipPath><clipPath id="c3bfbd0ddd"><path d="M 600.558594 279.640625 L 614.808594 279.640625 L 614.808594 293.890625 L 600.558594 293.890625 Z M 600.558594 279.640625 " clip-rule="nonzero"/></clipPath><clipPath id="07f754f433"><path d="M 607.667969 293.890625 C 611.613281 293.890625 614.808594 290.695312 614.808594 286.75 C 614.808594 282.804688 611.613281 279.605469 607.667969 279.605469 C 603.722656 279.605469 600.523438 282.804688 600.523438 286.75 C 600.523438 290.695312 603.722656 293.890625 607.667969 293.890625 Z M 607.667969 293.890625 " clip-rule="nonzero"/></clipPath><clipPath id="42378c2f72"><path d="M 1430.992188 119.863281 L 1439.992188 119.863281 L 1439.992188 128.863281 L 1430.992188 128.863281 Z M 1430.992188 119.863281 " clip-rule="nonzero"/></clipPath><clipPath id="4755ee7d0b"><path d="M 1435.464844 128.863281 C 1437.964844 128.863281 1439.992188 126.835938 1439.992188 124.335938 C 1439.992188 121.832031 1437.964844 119.804688 1435.464844 119.804688 C 1432.960938 119.804688 1430.933594 121.832031 1430.933594 124.335938 C 1430.933594 126.835938 1432.960938 128.863281 1435.464844 128.863281 Z M 1435.464844 128.863281 " clip-rule="nonzero"/></clipPath><clipPath id="b2ccc4abee"><path d="M 209.242188 72.503906 L 223.492188 72.503906 L 223.492188 86.753906 L 209.242188 86.753906 Z M 209.242188 72.503906 " clip-rule="nonzero"/></clipPath><clipPath id="47ff4dbc78"><path d="M 216.347656 86.753906 C 220.292969 86.753906 223.492188 83.558594 223.492188 79.613281 C 223.492188 75.667969 220.292969 72.46875 216.347656 72.46875 C 212.402344 72.46875 209.207031 75.667969 209.207031 79.613281 C 209.207031 83.558594 212.402344 86.753906 216.347656 86.753906 Z M 216.347656 86.753906 " clip-rule="nonzero"/></clipPath><clipPath id="714056c3c4"><path d="M 1056.53125 209.621094 L 1078.28125 209.621094 L 1078.28125 231.371094 L 1056.53125 231.371094 Z M 1056.53125 209.621094 " clip-rule="nonzero"/></clipPath><clipPath id="c0109a483d"><path d="M 281 151 L 296 151 L 296 166 L 281 166 Z M 281 151 " clip-rule="nonzero"/></clipPath><clipPath id="ba31e6fbc5"><path d="M 288.769531 171.480469 L 274.859375 158.90625 L 287.433594 144.996094 L 301.34375 157.570312 Z M 288.769531 171.480469 " clip-rule="nonzero"/></clipPath><clipPath id="ac3a4c5514"><path d="M 288.769531 171.480469 L 274.859375 158.90625 L 287.433594 144.996094 L 301.34375 157.570312 Z M 288.769531 171.480469 " clip-rule="nonzero"/></clipPath></defs><g clip-path="url(#4e2f6929c2)"><g clip-path="url(#b16e03d138)"><path stroke-linecap="butt" transform="matrix(0.75, 0, 0, 0.75, 967.680246, 563.978968)" fill="none" stroke-linejoin="miter" d="M 9.525298 0.0020015 C 4.264881 0.0020015 -0.000744053 4.262418 -0.000744053 9.522835 C -0.000744053 14.783252 4.264881 19.048877 9.525298 19.048877 C 14.780507 19.048877 19.046132 14.783252 19.046132 9.522835 C 19.046132 4.262418 14.780507 0.0020015 9.525298 0.0020015 Z M 9.525298 0.0020015 " stroke="#ffffff" stroke-width="8" stroke-opacity="1" stroke-miterlimit="4"/></g></g><g clip-path="url(#8f0e0f696f)"><g clip-path="url(#d6ac1eeee7)"><path stroke-linecap="butt" transform="matrix(0.75, 0, 0, 0.75, 142.491503, 728.999983)" fill="none" stroke-linejoin="miter" d="M 6.037371 0.0000222333 C 2.704038 0.0000222333 0.000912595 2.703147 0.000912595 6.036481 C 0.000912595 9.375023 2.704038 12.078148 6.037371 12.078148 C 9.375913 12.078148 12.079038 9.375023 12.079038 6.036481 C 12.079038 2.703147 9.375913 0.0000222333 6.037371 0.0000222333 Z M 6.037371 0.0000222333 " stroke="#ffffff" stroke-width="8" stroke-opacity="1" stroke-miterlimit="4"/></g></g><g clip-path="url(#1dd90e4716)"><g clip-path="url(#4505558afd)"><path stroke-linecap="butt" transform="matrix(0.75, 0, 0, 0.75, 1358.999938, 771.114533)" fill="none" stroke-linejoin="miter" d="M 9.520917 -0.00166928 C 4.265708 -0.00166928 0.000082863 4.263956 0.000082863 9.524373 C 0.000082863 14.78479 4.265708 19.045207 9.520917 19.045207 C 14.781334 19.045207 19.046959 14.78479 19.046959 9.524373 C 19.046959 4.263956 14.781334 -0.00166928 9.520917 -0.00166928 Z M 9.520917 -0.00166928 " stroke="#ffffff" stroke-width="8" stroke-opacity="1" stroke-miterlimit="4"/></g></g><g clip-path="url(#76ae954aa1)"><path fill="#ffffff" d="M 514.925781 647.929688 C 514.613281 637.78125 514.355469 637.523438 504.207031 637.214844 C 514.355469 636.902344 514.613281 636.644531 514.925781 626.496094 C 515.234375 636.644531 515.492188 636.902344 525.640625 637.214844 C 515.492188 637.523438 515.234375 637.769531 514.925781 647.929688 Z M 514.925781 647.929688 " fill-opacity="1" fill-rule="nonzero"/></g><g clip-path="url(#de230f2003)"><g clip-path="url(#5551e6bc2e)"><g clip-path="url(#f53603d3d1)"><path fill="#ffffff" d="M 727.027344 764.75 C 732.835938 757.917969 732.820312 757.59375 726.351562 751.378906 C 733.1875 757.1875 733.507812 757.171875 739.726562 750.703125 C 733.917969 757.539062 733.933594 757.859375 740.398438 764.078125 C 733.5625 758.269531 733.25 758.277344 727.027344 764.75 Z M 727.027344 764.75 " fill-opacity="1" fill-rule="nonzero"/></g></g></g><g clip-path="url(#c5fa60206c)"><g clip-path="url(#bfac47f78d)"><g clip-path="url(#4975f3ec31)"><g clip-path="url(#538d3b2b17)"><path stroke-linecap="butt" transform="matrix(0.261257, 0.703025, -0.703025, 0.261257, 995.356828, 38.522223)" fill="none" stroke-linejoin="miter" d="M 9.524543 0.00203536 C 4.26436 -0.00246736 0.000735363 4.263922 0.00111477 9.525919 C -0.00157367 14.78122 4.264815 19.044844 9.524998 19.049347 C 14.782114 19.047153 19.045738 14.780764 19.048426 9.525463 C 19.048047 4.263466 14.781658 -0.000158324 9.524543 0.00203536 Z M 9.524543 0.00203536 " stroke="#ffffff" stroke-width="8" stroke-opacity="1" stroke-miterlimit="4"/></g></g></g></g><g clip-path="url(#b968582abc)"><g clip-path="url(#03b66ca359)"><path stroke-linecap="butt" transform="matrix(-0.75, 0, 0, -0.75, 1335.390179, 360.700929)" fill="none" stroke-linejoin="miter" d="M 6.041072 0.0022804 C 2.702531 0.0022804 -0.000594613 2.705406 -0.000594613 6.038739 C -0.000594613 9.372073 2.702531 12.080406 6.041072 12.080406 C 9.374406 12.080406 12.077531 9.372073 12.077531 6.038739 C 12.077531 2.705406 9.374406 0.0022804 6.041072 0.0022804 Z M 6.041072 0.0022804 " stroke="#ffffff" stroke-width="8" stroke-opacity="1" stroke-miterlimit="4"/></g></g><g clip-path="url(#b2ee11c6fe)"><g clip-path="url(#f3d2ed62cb)"><path stroke-linecap="butt" transform="matrix(-0.75, 0, 0, -0.75, 118.887855, 318.592415)" fill="none" stroke-linejoin="miter" d="M 9.522348 -0.00177977 C 4.261931 -0.00177977 0.00151452 4.263845 0.00151452 9.524262 C 0.00151452 14.784679 4.261931 19.045096 9.522348 19.045096 C 14.782765 19.045096 19.04839 14.784679 19.04839 9.524262 C 19.04839 4.263845 14.782765 -0.00177977 9.522348 -0.00177977 Z M 9.522348 -0.00177977 " stroke="#ffffff" stroke-width="8" stroke-opacity="1" stroke-miterlimit="4"/></g></g><g clip-path="url(#8afbbc3d8a)"><path fill="#ffffff" d="M 589.808594 0 C 590.117188 10.148438 590.375 10.40625 600.523438 10.71875 C 590.375 11.027344 590.117188 11.285156 589.808594 21.433594 C 589.496094 11.285156 589.238281 11.027344 579.089844 10.71875 C 589.238281 10.40625 589.496094 10.160156 589.808594 0 Z M 589.808594 0 " fill-opacity="1" fill-rule="nonzero"/></g><g clip-path="url(#f5063aef94)"><g clip-path="url(#b026d871fe)"><g clip-path="url(#673e15f83a)"><path fill="#ffffff" d="M 1286.847656 571.238281 C 1281.039062 578.074219 1281.054688 578.394531 1287.523438 584.609375 C 1280.6875 578.800781 1280.367188 578.816406 1274.148438 585.285156 C 1279.960938 578.449219 1279.941406 578.128906 1273.476562 571.910156 C 1280.3125 577.71875 1280.625 577.710938 1286.847656 571.238281 Z M 1286.847656 571.238281 " fill-opacity="1" fill-rule="nonzero"/></g></g></g><g clip-path="url(#c3bfbd0ddd)"><g clip-path="url(#07f754f433)"><path stroke-linecap="butt" transform="matrix(-0.75, 0, 0, -0.75, 614.810255, 293.891372)" fill="none" stroke-linejoin="miter" d="M 9.523049 0.000995486 C 4.262632 0.000995486 0.00221539 4.261412 0.00221539 9.521829 C 0.00221539 14.782246 4.262632 19.047871 9.523049 19.047871 C 14.783466 19.047871 19.049091 14.782246 19.049091 9.521829 C 19.049091 4.261412 14.783466 0.000995486 9.523049 0.000995486 Z M 9.523049 0.000995486 " stroke="#ffffff" stroke-width="8" stroke-opacity="1" stroke-miterlimit="4"/></g></g><g clip-path="url(#42378c2f72)"><g clip-path="url(#4755ee7d0b)"><path stroke-linecap="butt" transform="matrix(-0.75, 0, 0, -0.75, 1439.993022, 128.864325)" fill="none" stroke-linejoin="miter" d="M 6.037571 0.00139129 C 2.704238 0.00139129 0.00111237 2.704516 0.00111237 6.03785 C 0.00111237 9.376392 2.704238 12.079517 6.037571 12.079517 C 9.376113 12.079517 12.079238 9.376392 12.079238 6.03785 C 12.079238 2.704516 9.376113 0.00139129 6.037571 0.00139129 Z M 6.037571 0.00139129 " stroke="#ffffff" stroke-width="8" stroke-opacity="1" stroke-miterlimit="4"/></g></g><g clip-path="url(#b2ccc4abee)"><g clip-path="url(#47ff4dbc78)"><path stroke-linecap="butt" transform="matrix(-0.75, 0, 0, -0.75, 223.490546, 86.755811)" fill="none" stroke-linejoin="miter" d="M 9.523854 0.00253945 C 4.263437 0.00253945 -0.00218843 4.262956 -0.00218843 9.523373 C -0.00218843 14.78379 4.263437 19.049415 9.523854 19.049415 C 14.784271 19.049415 19.044688 14.78379 19.044688 9.523373 C 19.044688 4.262956 14.784271 0.00253945 9.523854 0.00253945 Z M 9.523854 0.00253945 " stroke="#ffffff" stroke-width="8" stroke-opacity="1" stroke-miterlimit="4"/></g></g><g clip-path="url(#714056c3c4)"><path fill="#ffffff" d="M 1067.566406 209.941406 C 1067.875 220.089844 1068.132812 220.34375 1078.28125 220.65625 C 1068.132812 220.96875 1067.875 221.222656 1067.566406 231.371094 C 1067.253906 221.222656 1067 220.96875 1056.847656 220.65625 C 1067 220.34375 1067.253906 220.097656 1067.566406 209.941406 Z M 1067.566406 209.941406 " fill-opacity="1" fill-rule="nonzero"/></g><g clip-path="url(#c0109a483d)"><g clip-path="url(#ba31e6fbc5)"><g clip-path="url(#ac3a4c5514)"><path fill="#ffffff" d="M 294.445312 151.082031 C 288.636719 157.917969 288.652344 158.238281 295.117188 164.457031 C 288.28125 158.644531 287.960938 158.664062 281.746094 165.128906 C 287.554688 158.292969 287.539062 157.972656 281.070312 151.757812 C 287.90625 157.566406 288.222656 157.558594 294.445312 151.082031 Z M 294.445312 151.082031 " fill-opacity="1" fill-rule="nonzero"/></g></g></g><g fill="#ffffff" fill-opacity="1"><g transform="translate(301.480597, 518.028148)"><g><path d="M 7.484375 -17.5 L 11.359375 -15.328125 L 10.640625 -14.015625 L 6.734375 -16.28125 L 6.734375 -11.859375 L 5.296875 -11.859375 L 5.328125 -16.28125 L 1.4375 -14.015625 L 0.6875 -15.328125 L 4.59375 -17.5 L 0.6875 -19.6875 L 1.4375 -21.03125 L 5.328125 -18.71875 L 5.296875 -23.15625 L 6.734375 -23.15625 L 6.734375 -18.71875 L 10.640625 -21.03125 L 11.359375 -19.6875 Z M 7.484375 -17.5 "/></g></g></g><g fill="#ffffff" fill-opacity="1"><g transform="translate(814.925897, 156.881936)"><g><path d="M 19 -1.078125 L 18.78125 3.34375 L 17.28125 3.296875 L 17.578125 -1.21875 L 13.625 0.75 L 12.984375 -0.53125 L 16.953125 -2.484375 L 13.1875 -4.953125 L 14.03125 -6.21875 L 17.71875 -3.671875 L 17.9375 -8.15625 L 19.46875 -8.078125 L 19.140625 -3.5625 L 23.09375 -5.5625 L 23.734375 -4.28125 L 19.765625 -2.296875 L 23.5625 0.171875 L 22.6875 1.40625 Z M 19 -1.078125 "/></g></g></g><g fill="#ffffff" fill-opacity="1"><g transform="translate(1013.491079, 748.102614)"><g><path d="M 12.171875 14.640625 L 8.484375 17.078125 L 7.640625 15.84375 L 11.4375 13.40625 L 7.5 11.390625 L 8.15625 10.109375 L 12.078125 12.15625 L 11.828125 7.65625 L 13.34375 7.578125 L 13.484375 12.0625 L 17.21875 9.5625 L 18.078125 10.84375 L 14.25 13.265625 L 18.21875 15.25 L 17.5625 16.53125 L 13.609375 14.515625 L 13.890625 19.03125 L 12.359375 19.0625 Z M 12.171875 14.640625 "/></g></g></g><g fill="#ffffff" fill-opacity="1"><g transform="translate(1324.601263, 14.689118)"><g><path d="M 12.171875 14.640625 L 8.484375 17.078125 L 7.640625 15.84375 L 11.4375 13.40625 L 7.5 11.390625 L 8.15625 10.109375 L 12.078125 12.15625 L 11.828125 7.65625 L 13.34375 7.578125 L 13.484375 12.0625 L 17.21875 9.5625 L 18.078125 10.84375 L 14.25 13.265625 L 18.21875 15.25 L 17.5625 16.53125 L 13.609375 14.515625 L 13.890625 19.03125 L 12.359375 19.0625 Z M 12.171875 14.640625 "/></g></g></g></svg>